<?xml version="1.0" standalone="no"?>
<!DOCTYPE svg PUBLIC "-//W3C//DTD SVG 20010904//EN"
 "http://www.w3.org/TR/2001/REC-SVG-20010904/DTD/svg10.dtd">
<svg version="1.0" xmlns="http://www.w3.org/2000/svg"
 width="228" height="61" viewBox="0 0 728.000000 206.000000" fill="#fff"
 preserveAspectRatio="xMidYMid meet">

<g transform="translate(0.000000,206.000000) scale(0.100000,-0.100000)"
fill="#000000" stroke="none">
<path d="M2125 1277 c4 -14 2 -35 -5 -46 -10 -19 -20 -21 -95 -21 l-85 0 0
-186 c0 -115 -4 -193 -11 -206 -9 -16 -8 -19 3 -16 10 4 14 47 16 201 l2 197
79 0 c44 0 86 3 95 6 18 7 23 79 6 89 -7 4 -9 -2 -5 -18z"/>
<path d="M3258 1046 c-2 -195 0 -242 10 -234 15 13 18 463 2 473 -6 4 -10 -85
-12 -239z"/>
<path d="M3892 1054 c-1 -134 -6 -235 -12 -242 -5 -7 -3 -6 5 1 13 11 15 47
12 243 l-2 229 -3 -231z"/>
<path d="M4432 1246 c-2 -37 -13 -51 -154 -195 l-153 -155 145 139 c80 77 151
150 158 163 7 13 11 37 9 55 -3 29 -4 29 -5 -7z"/>
<path d="M2683 1191 c17 -62 -6 -119 -58 -148 -49 -28 -39 -30 14 -4 23 12 43
32 51 51 14 33 9 115 -8 132 -6 6 -6 -6 1 -31z"/>
<path d="M6190 1210 l-165 -6 162 -2 c99 -1 164 2 168 8 3 6 5 9 3 8 -2 -1
-77 -5 -168 -8z"/>
<path d="M1688 1203 c23 -2 59 -2 80 0 20 2 1 4 -43 4 -44 0 -61 -2 -37 -4z"/>
<path d="M2322 1148 l2 -63 3 57 4 57 82 4 82 3 -87 2 -88 2 2 -62z"/>
<path d="M2976 1189 c-17 -14 -33 -43 -47 -90 -12 -39 -19 -73 -15 -76 6 -7 8
-2 30 78 21 75 43 93 125 100 l66 6 -66 1 c-53 2 -71 -2 -93 -19z"/>
<path d="M4053 1203 c37 -2 97 -2 135 0 37 2 6 3 -68 3 -74 0 -105 -1 -67 -3z"/>
<path d="M4872 1118 l2 -93 3 87 4 87 77 4 77 3 -82 2 -83 2 2 -92z"/>
<path d="M5488 1203 c23 -2 61 -2 85 0 23 2 4 4 -43 4 -47 0 -66 -2 -42 -4z"/>
<path d="M6603 1203 c26 -2 68 -2 95 0 26 2 4 3 -48 3 -52 0 -74 -1 -47 -3z"/>
<path d="M3490 968 c-3 -92 -2 -164 3 -159 4 4 6 79 5 167 l-3 159 -5 -167z"/>
<path d="M3680 1070 c6 -11 13 -20 16 -20 2 0 0 9 -6 20 -6 11 -13 20 -16 20
-2 0 0 -9 6 -20z"/>
<path d="M2622 955 c53 -75 89 -141 81 -148 -3 -4 -1 -7 5 -7 7 0 12 5 12 11
0 17 -87 153 -112 175 -12 11 -7 -1 14 -31z"/>
<path d="M2322 917 c-1 -43 -7 -87 -12 -98 -8 -13 -7 -19 0 -19 18 0 21 22 17
111 l-3 84 -2 -78z"/>
<path d="M5199 963 c-13 -16 -12 -17 4 -4 9 7 17 15 17 17 0 8 -8 3 -21 -13z"/>
<path d="M2871 880 c-6 -25 -17 -54 -23 -65 -10 -18 -9 -19 5 -6 18 14 41 85
34 104 -2 7 -9 -8 -16 -33z"/>
<path d="M4873 870 c0 -25 2 -35 4 -22 2 12 2 32 0 45 -2 12 -4 2 -4 -23z"/>
<path d="M4426 813 c-6 -14 -5 -15 5 -6 7 7 10 15 7 18 -3 3 -9 -2 -12 -12z"/>
</g>
</svg>
