<?xml version="1.0" standalone="no"?>
<!DOCTYPE svg PUBLIC "-//W3C//DTD SVG 20010904//EN"
 "http://www.w3.org/TR/2001/REC-SVG-20010904/DTD/svg10.dtd">
<svg version="1.0" xmlns="http://www.w3.org/2000/svg"
 width="233" height="66" viewBox="0 0 728.000000 206.000000"
 preserveAspectRatio="xMidYMid meet">

<g transform="translate(0.000000,206.000000) scale(0.100000,-0.100000)"
fill="#000000" stroke="none">
<path d="M457 1423 c15 -27 37 -65 50 -85 l23 -38 100 0 100 0 20 40 c20 39
22 40 70 40 28 0 50 -2 50 -5 0 -3 -71 -130 -158 -283 -88 -152 -164 -287
-171 -299 l-12 -23 153 0 153 0 130 228 130 227 49 3 c43 3 48 1 43 -15 -3
-10 -70 -130 -149 -268 l-144 -250 -207 -5 -207 -5 -26 -43 -25 -42 506 0 506
0 -28 48 c-15 26 -37 64 -50 85 l-23 37 -100 0 -100 0 -20 -40 c-20 -39 -22
-40 -71 -40 -42 0 -50 3 -45 15 3 8 75 136 159 283 85 147 159 277 166 290
l12 22 -153 0 -153 0 -130 -228 -130 -227 -47 -3 c-35 -2 -48 1 -47 10 0 7 67
128 148 268 l147 255 207 5 207 5 26 43 25 42 -506 0 -506 0 28 -47z"/>
<path d="M1642 1288 c-15 -15 -16 -60 0 -76 7 -7 44 -12 95 -12 l83 0 0 -189
c0 -215 0 -214 77 -209 l48 3 3 198 2 197 83 0 c45 0 88 4 95 9 8 5 12 23 10
47 l-3 39 -240 3 c-179 2 -244 -1 -253 -10z"/>
<path d="M2212 1288 c-9 -9 -12 -76 -12 -239 0 -257 -2 -252 77 -247 l48 3 3
88 3 87 57 0 c71 0 89 -12 143 -93 23 -34 49 -68 57 -75 20 -16 132 -16 132 0
0 18 -85 150 -114 177 l-25 24 48 22 c57 27 76 63 68 131 -6 56 -49 106 -106
123 -53 15 -363 15 -379 -1z m336 -104 c17 -12 22 -24 20 -47 -4 -45 -35 -57
-145 -57 l-93 0 0 60 0 60 98 0 c73 0 103 -4 120 -16z"/>
<path d="M2955 1286 c-56 -17 -83 -36 -105 -71 -22 -36 -114 -381 -106 -401 4
-9 22 -14 55 -14 57 0 74 16 86 83 l7 37 129 0 128 0 3 -57 3 -58 48 -3 c79
-5 77 -10 77 247 0 163 -3 230 -12 239 -16 16 -260 15 -313 -2z m195 -176 l0
-90 -114 0 -115 0 19 67 c26 94 50 113 141 113 l69 0 0 -90z"/>
<path d="M3384 1287 c-2 -7 -3 -118 -2 -247 l3 -235 55 0 55 0 3 158 c1 86 6
157 10 157 4 0 45 -60 91 -133 120 -188 119 -187 206 -187 42 0 76 5 83 12 17
17 17 459 0 476 -16 16 -90 16 -106 0 -8 -8 -12 -62 -12 -177 l0 -166 -101
155 c-135 207 -127 200 -211 200 -46 0 -70 -4 -74 -13z"/>
<path d="M3977 1293 c-14 -14 -7 -81 9 -87 9 -3 77 -6 152 -6 l137 -1 -133
-127 c-73 -70 -141 -140 -152 -157 -23 -35 -26 -88 -6 -104 9 -8 79 -11 232
-9 l219 3 0 45 0 45 -148 5 -149 5 151 148 c136 133 151 151 151 181 0 69 11
66 -234 66 -123 0 -226 -3 -229 -7z"/>
<path d="M4522 1288 c-9 -9 -12 -71 -12 -239 0 -257 -2 -252 77 -247 l48 3 0
245 0 245 -50 3 c-30 2 -55 -2 -63 -10z"/>
<path d="M4755 1288 c-3 -7 -4 -119 -3 -248 l3 -235 50 -3 c58 -4 75 11 75 69
l0 37 123 4 c148 5 194 23 228 90 29 57 25 178 -8 224 -43 60 -77 69 -281 72
-145 3 -183 1 -187 -10z m346 -115 c30 -30 30 -107 0 -137 -19 -18 -33 -21
-119 -21 -53 0 -98 3 -99 8 -2 4 -3 46 -3 93 l0 86 100 -4 c86 -3 102 -6 121
-25z"/>
<path d="M5332 1288 c-9 -9 -12 -76 -12 -239 0 -257 -2 -252 77 -247 l48 3 3
53 3 52 102 0 c151 1 201 17 250 82 24 31 33 129 18 185 -13 49 -64 97 -118
112 -54 15 -356 14 -371 -1z m327 -103 c32 -16 41 -33 41 -75 0 -79 -35 -100
-166 -100 l-84 0 0 95 0 95 90 0 c60 0 101 -5 119 -15z"/>
<path d="M5905 1287 c-3 -7 -4 -118 -3 -247 l3 -235 225 0 225 0 0 45 0 45
-162 3 -163 2 0 50 0 50 129 0 c71 0 136 3 145 6 11 4 16 19 16 44 0 25 -5 40
-16 44 -9 3 -74 6 -145 6 l-129 0 0 50 0 50 163 2 162 3 0 45 0 45 -223 3
c-174 2 -224 0 -227 -11z"/>
<path d="M6442 1288 c-9 -9 -12 -76 -12 -239 0 -257 -2 -252 77 -247 l48 3 3
88 3 87 57 0 c71 0 89 -12 143 -93 23 -34 49 -68 57 -75 20 -16 132 -16 132 0
0 18 -85 150 -114 177 l-25 24 47 22 c54 25 72 55 72 120 0 37 -6 52 -35 83
-20 22 -51 44 -73 50 -54 16 -364 16 -380 0z m336 -104 c14 -10 22 -25 22 -44
0 -44 -39 -60 -150 -60 l-90 0 0 60 0 60 98 0 c72 0 103 -4 120 -16z"/>
</g>
</svg>
