<svg width="30" height="29" viewBox="0 0 30 29" fill="none" xmlns="http://www.w3.org/2000/svg">
<path fill-rule="evenodd" clip-rule="evenodd" d="M3.53652 18.2689L2.07059 9.10831C1.97422 8.50724 2.23922 7.90497 2.74754 7.5701C3.25586 7.23524 3.91234 7.22922 4.42668 7.55324L9.01961 10.4538L13.833 4.93697C14.1269 4.59969 14.5533 4.40576 15.0002 4.40576C15.4471 4.40576 15.8735 4.59969 16.1674 4.93697L20.9807 10.4538L25.5737 7.55324C26.088 7.22922 26.7445 7.23524 27.2528 7.5701C27.7611 7.90497 28.0261 8.50724 27.9298 9.10831L26.4638 18.2689H3.53652ZM26.1747 20.0757L25.7471 22.7462C25.5773 23.811 24.6582 24.5939 23.5814 24.5939H6.419C5.34213 24.5939 4.42306 23.811 4.25322 22.7462L3.82561 20.0757H26.1747Z" fill="#f5dfa9"/>
</svg>
